<svg viewBox="0 0 24 24" fill="none" stroke="currentColor" stroke-width="1.5" stroke-linecap="round" stroke-linejoin="round">
  <!-- Cultivate Logo Draft — Cabbage with 6 ears + 2 acute side ears -->
  <!-- Develop further in Canva -->

  <!-- Top lobe -->
  <path d="M12 3c-2.5 0-4.5 2-4.5 4.5S9.5 12 12 12s4.5-2.5 4.5-4.5S14.5 3 12 3z" />
  <!-- Top-left ear -->
  <path d="M7.5 7.5c-1.8-1.5-4-1.2-4.5.8-.5 2 1 3.5 3 3.7" />
  <!-- Top-right ear -->
  <path d="M16.5 7.5c1.8-1.5 4-1.2 4.5.8.5 2-1 3.5-3 3.7" />
  <!-- Bottom lobe (mirrored) -->
  <path d="M12 21c2.5 0 4.5-2 4.5-4.5S14.5 12 12 12s-4.5 2.5-4.5 4.5S9.5 21 12 21z" />
  <!-- Bottom-left ear (mirrored) -->
  <path d="M7.5 16.5c-1.8 1.5-4 1.2-4.5-.8-.5-2 1-3.5 3-3.7" />
  <!-- Bottom-right ear (mirrored) -->
  <path d="M16.5 16.5c1.8 1.5 4 1.2 4.5-.8.5-2-1-3.5-3-3.7" />
  <!-- Left acute ear — between top-left and bottom-left -->
  <path d="M5.5 10.5c-1.8-.5-3 .2-3 1.5s1.2 2 3 1.5" />
  <!-- Right acute ear — between top-right and bottom-right -->
  <path d="M18.5 10.5c1.8-.5 3 .2 3 1.5s-1.2 2-3 1.5" />
</svg>
