<svg xmlns="http://www.w3.org/2000/svg" xmlns:xlink="http://www.w3.org/1999/xlink" width="256" zoomAndPan="magnify" viewBox="0 0 192 199.92" height="256" preserveAspectRatio="xMidYMid meet" version="1.0"><defs><clipPath id="cceb6a2fd8"><path d="M 85 146 L 107 146 L 107 184.035156 L 85 184.035156 Z M 85 146 " clip-rule="nonzero"/></clipPath><clipPath id="f59dcd99d1"><path d="M 33.667969 121 L 158 121 L 158 184.035156 L 33.667969 184.035156 Z M 33.667969 121 " clip-rule="nonzero"/></clipPath><clipPath id="b0c766200d"><path d="M 85 7.855469 L 107 7.855469 L 107 29 L 85 29 Z M 85 7.855469 " clip-rule="nonzero"/></clipPath><clipPath id="dcd6e74d40"><path d="M 33.667969 28 L 56 28 L 56 50 L 33.667969 50 Z M 33.667969 28 " clip-rule="nonzero"/></clipPath></defs><path fill="#000000" d="M 95.878906 122.152344 C 81.351562 122.152344 69.527344 110.3125 69.527344 95.761719 L 69.527344 83.929688 C 69.527344 78.5 72.066406 73.289062 76.316406 69.992188 C 80.015625 67.121094 82.585938 64.070312 83.953125 60.917969 C 84.179688 60.398438 84.691406 60.0625 85.257812 60.054688 L 85.269531 60.054688 C 85.828125 60.054688 86.339844 60.386719 86.570312 60.898438 C 86.613281 60.992188 90.863281 70.148438 99.878906 74.28125 C 100.847656 73.890625 103.105469 72.683594 103.398438 69.824219 C 103.460938 69.195312 103.925781 68.683594 104.542969 68.5625 C 105.160156 68.441406 105.78125 68.734375 106.078125 69.285156 C 106.125 69.367188 108.421875 73.316406 115.675781 75.527344 C 119.597656 76.722656 122.230469 80.289062 122.230469 84.402344 L 122.230469 95.761719 C 122.230469 110.3125 110.410156 122.152344 95.878906 122.152344 Z M 85.292969 64.527344 C 83.632812 67.230469 81.210938 69.824219 78.070312 72.257812 C 74.515625 75.015625 72.390625 79.378906 72.390625 83.929688 L 72.390625 95.761719 C 72.390625 108.730469 82.929688 119.285156 95.878906 119.285156 C 108.832031 119.285156 119.367188 108.730469 119.367188 95.761719 L 119.367188 84.402344 C 119.367188 81.558594 117.546875 79.09375 114.84375 78.269531 C 110.035156 76.804688 107.09375 74.628906 105.425781 72.976562 C 103.777344 76.21875 100.359375 77.160156 100.179688 77.207031 C 99.871094 77.289062 99.542969 77.261719 99.25 77.136719 C 91.855469 73.964844 87.351562 67.917969 85.292969 64.527344 Z M 104.820312 69.96875 L 104.824219 69.96875 Z M 104.820312 69.96875 " fill-opacity="1" fill-rule="nonzero"/><path fill="#000000" d="M 70.738281 101.253906 L 69.003906 101.253906 C 65.328125 101.253906 62.335938 98.257812 62.335938 94.574219 L 62.335938 89.632812 C 62.335938 86.59375 64.800781 84.121094 67.835938 84.121094 L 70.960938 84.121094 C 71.75 84.121094 72.390625 84.765625 72.390625 85.554688 L 72.390625 99.597656 C 72.390625 100.511719 71.652344 101.253906 70.738281 101.253906 Z M 67.835938 86.988281 C 66.382812 86.988281 65.199219 88.175781 65.199219 89.632812 L 65.199219 94.574219 C 65.199219 96.675781 66.90625 98.386719 69.003906 98.386719 L 69.53125 98.386719 L 69.53125 86.988281 Z M 67.835938 86.988281 " fill-opacity="1" fill-rule="nonzero"/><path fill="#000000" d="M 122.753906 101.253906 L 121.019531 101.253906 C 120.109375 101.253906 119.367188 100.511719 119.367188 99.597656 L 119.367188 85.554688 C 119.367188 84.765625 120.007812 84.121094 120.796875 84.121094 L 123.921875 84.121094 C 126.957031 84.121094 129.425781 86.59375 129.425781 89.632812 L 129.425781 94.574219 C 129.425781 98.257812 126.433594 101.253906 122.753906 101.253906 Z M 122.230469 98.386719 L 122.753906 98.386719 C 124.851562 98.386719 126.5625 96.675781 126.5625 94.574219 L 126.5625 89.632812 C 126.5625 88.175781 125.378906 86.988281 123.921875 86.988281 L 122.230469 86.988281 Z M 122.230469 98.386719 " fill-opacity="1" fill-rule="nonzero"/><path fill="#000000" d="M 125.179688 87.015625 C 125.121094 87.015625 125.0625 87.011719 125.003906 87.003906 C 124.917969 86.996094 124.847656 86.988281 124.789062 86.988281 L 120.796875 86.988281 C 120.007812 86.988281 119.367188 86.347656 119.367188 85.554688 L 119.367188 84.402344 C 119.367188 81.558594 117.546875 79.09375 114.84375 78.269531 C 110.03125 76.804688 107.09375 74.628906 105.425781 72.976562 C 103.777344 76.21875 100.359375 77.160156 100.179688 77.207031 C 99.871094 77.289062 99.542969 77.265625 99.25 77.136719 C 91.855469 73.964844 87.351562 67.917969 85.292969 64.527344 C 83.632812 67.230469 81.210938 69.824219 78.070312 72.257812 C 74.515625 75.015625 72.390625 79.378906 72.390625 83.929688 L 72.390625 85.554688 C 72.390625 86.347656 71.75 86.988281 70.960938 86.988281 L 66.972656 86.988281 C 66.910156 86.988281 66.847656 86.992188 66.769531 87.003906 C 66.367188 87.046875 65.960938 86.917969 65.65625 86.648438 C 65.351562 86.375 65.179688 85.984375 65.179688 85.578125 L 65.179688 76.84375 C 65.179688 59.882812 78.957031 46.082031 95.894531 46.082031 C 112.832031 46.082031 126.609375 59.882812 126.609375 76.84375 L 126.609375 85.582031 C 126.609375 85.992188 126.433594 86.382812 126.128906 86.65625 C 125.863281 86.890625 125.527344 87.015625 125.179688 87.015625 Z M 122.226562 84.121094 L 123.746094 84.121094 L 123.746094 76.84375 C 123.746094 61.464844 111.253906 48.949219 95.894531 48.949219 C 80.535156 48.949219 68.042969 61.464844 68.042969 76.84375 L 68.042969 84.121094 L 69.527344 84.121094 L 69.527344 83.929688 C 69.527344 78.5 72.066406 73.285156 76.316406 69.992188 C 80.015625 67.121094 82.585938 64.070312 83.953125 60.917969 C 84.179688 60.398438 84.691406 60.058594 85.257812 60.054688 L 85.269531 60.054688 C 85.828125 60.054688 86.339844 60.386719 86.570312 60.898438 C 86.613281 60.992188 90.863281 70.148438 99.878906 74.28125 C 100.84375 73.890625 103.101562 72.683594 103.394531 69.820312 C 103.460938 69.195312 103.925781 68.683594 104.542969 68.5625 C 105.164062 68.441406 105.789062 68.738281 106.082031 69.292969 C 106.101562 69.324219 108.378906 73.304688 115.675781 75.527344 C 119.503906 76.695312 122.105469 80.125 122.222656 84.121094 Z M 122.226562 84.121094 " fill-opacity="1" fill-rule="nonzero"/><path fill="#000000" d="M 96.421875 138.453125 L 95.339844 138.453125 C 94.378906 138.453125 93.445312 138.117188 92.710938 137.503906 L 76.253906 123.800781 C 75.878906 123.488281 75.6875 123.007812 75.75 122.519531 L 76.902344 113.292969 C 76.972656 112.753906 77.339844 112.296875 77.859375 112.117188 C 78.375 111.9375 78.945312 112.070312 79.332031 112.457031 C 83.761719 116.859375 89.640625 119.285156 95.878906 119.285156 C 102.207031 119.285156 108.144531 116.800781 112.589844 112.289062 C 112.980469 111.894531 113.5625 111.757812 114.085938 111.941406 C 114.605469 112.125 114.976562 112.59375 115.035156 113.148438 L 116.015625 122.550781 C 116.0625 123.027344 115.871094 123.496094 115.503906 123.800781 L 99.046875 137.503906 C 98.3125 138.117188 97.378906 138.453125 96.417969 138.453125 Z M 78.6875 122.097656 L 94.539062 135.296875 C 94.765625 135.484375 95.046875 135.585938 95.339844 135.585938 L 96.421875 135.585938 C 96.710938 135.585938 96.996094 135.484375 97.21875 135.296875 L 113.085938 122.085938 L 112.480469 116.261719 C 107.800781 120.078125 102.003906 122.152344 95.878906 122.152344 C 89.820312 122.152344 84.066406 120.113281 79.40625 116.363281 Z M 78.6875 122.097656 " fill-opacity="1" fill-rule="nonzero"/><path fill="#000000" d="M 86.820312 149.039062 C 86.417969 149.039062 86.027344 148.867188 85.753906 148.558594 L 66.699219 127.1875 C 66.382812 126.835938 66.261719 126.347656 66.375 125.890625 C 66.488281 125.429688 66.820312 125.054688 67.261719 124.890625 L 76.664062 121.355469 C 77.148438 121.175781 77.6875 121.265625 78.082031 121.597656 L 94.539062 135.296875 C 95.085938 135.753906 95.214844 136.539062 94.847656 137.144531 L 88.046875 148.351562 C 87.808594 148.738281 87.402344 148.992188 86.953125 149.03125 C 86.910156 149.035156 86.863281 149.039062 86.820312 149.039062 Z M 70.226562 126.839844 L 86.601562 145.207031 L 91.761719 136.710938 L 76.894531 124.335938 Z M 70.226562 126.839844 " fill-opacity="1" fill-rule="nonzero"/><path fill="#000000" d="M 104.902344 149.039062 C 104.859375 149.039062 104.8125 149.039062 104.769531 149.035156 C 104.320312 148.992188 103.914062 148.738281 103.675781 148.351562 L 96.875 137.144531 C 96.503906 136.539062 96.636719 135.753906 97.183594 135.296875 L 113.636719 121.597656 C 114.035156 121.265625 114.574219 121.175781 115.058594 121.355469 L 124.460938 124.890625 C 124.902344 125.058594 125.234375 125.429688 125.347656 125.890625 C 125.460938 126.347656 125.339844 126.835938 125.023438 127.1875 L 105.96875 148.5625 C 105.695312 148.867188 105.308594 149.039062 104.902344 149.039062 Z M 99.960938 136.710938 L 105.121094 145.207031 L 121.496094 126.839844 L 114.828125 124.335938 Z M 99.960938 136.710938 " fill-opacity="1" fill-rule="nonzero"/><path fill="#000000" d="M 95.878906 150.867188 C 94.894531 150.867188 93.910156 150.679688 92.976562 150.304688 L 86.925781 147.894531 C 86.535156 147.738281 86.230469 147.414062 86.097656 147.015625 C 85.964844 146.617188 86.011719 146.175781 86.234375 145.816406 L 92.402344 135.65625 C 92.617188 135.300781 92.976562 135.054688 93.390625 134.988281 C 93.800781 134.917969 94.21875 135.03125 94.539062 135.296875 C 94.765625 135.484375 95.046875 135.585938 95.339844 135.585938 L 96.421875 135.585938 C 96.703125 135.585938 96.984375 135.488281 97.207031 135.304688 C 97.527344 135.046875 97.945312 134.9375 98.351562 135.007812 C 98.761719 135.078125 99.117188 135.320312 99.332031 135.675781 L 105.496094 145.828125 C 105.714844 146.1875 105.765625 146.625 105.632812 147.027344 C 105.496094 147.425781 105.195312 147.75 104.804688 147.902344 L 98.785156 150.304688 C 97.847656 150.679688 96.863281 150.867188 95.878906 150.867188 Z M 89.558594 145.855469 L 94.035156 147.640625 C 95.222656 148.117188 96.535156 148.117188 97.722656 147.640625 L 102.171875 145.867188 L 97.570312 138.289062 C 97.199219 138.398438 96.808594 138.453125 96.421875 138.453125 L 95.339844 138.453125 C 94.9375 138.453125 94.539062 138.394531 94.160156 138.28125 Z M 89.558594 145.855469 " fill-opacity="1" fill-rule="nonzero"/><g clip-path="url(#cceb6a2fd8)"><path fill="#000000" d="M 95.878906 184.039062 C 92.773438 184.039062 89.617188 183.871094 86.496094 183.539062 C 86.113281 183.5 85.765625 183.308594 85.523438 183.007812 C 85.285156 182.703125 85.179688 182.320312 85.226562 181.9375 L 89.46875 147.753906 C 89.523438 147.3125 89.777344 146.921875 90.160156 146.695312 C 90.542969 146.46875 91.003906 146.433594 91.417969 146.597656 L 94.035156 147.640625 C 95.222656 148.117188 96.535156 148.117188 97.722656 147.640625 L 100.339844 146.597656 C 100.753906 146.433594 101.21875 146.46875 101.601562 146.695312 C 101.980469 146.921875 102.238281 147.3125 102.292969 147.753906 L 106.53125 181.9375 C 106.582031 182.320312 106.472656 182.703125 106.234375 183.007812 C 105.996094 183.308594 105.644531 183.5 105.265625 183.539062 C 102.144531 183.871094 98.984375 184.039062 95.878906 184.039062 Z M 88.25 180.832031 C 90.792969 181.058594 93.355469 181.171875 95.878906 181.171875 C 98.40625 181.171875 100.964844 181.058594 103.511719 180.832031 L 99.679688 149.949219 L 98.785156 150.304688 C 96.910156 151.054688 94.847656 151.054688 92.972656 150.304688 L 92.082031 149.949219 Z M 88.25 180.832031 " fill-opacity="1" fill-rule="nonzero"/></g><g clip-path="url(#f59dcd99d1)"><path fill="#000000" d="M 95.878906 184.039062 C 72.648438 184.039062 50.738281 175.042969 34.191406 158.703125 C 33.84375 158.359375 33.695312 157.863281 33.796875 157.382812 L 36.375 145.253906 C 37.609375 139.441406 41.632812 134.65625 47.144531 132.453125 C 47.152344 132.449219 47.160156 132.445312 47.171875 132.441406 L 76.664062 121.355469 C 77.148438 121.175781 77.6875 121.265625 78.082031 121.597656 L 94.539062 135.296875 C 94.765625 135.484375 95.046875 135.585938 95.339844 135.585938 L 96.421875 135.585938 C 96.710938 135.585938 96.996094 135.484375 97.21875 135.296875 L 113.675781 121.597656 C 114.070312 121.265625 114.609375 121.175781 115.09375 121.355469 L 144.585938 132.441406 C 144.597656 132.445312 144.605469 132.449219 144.617188 132.453125 C 150.125 134.65625 154.152344 139.441406 155.386719 145.253906 L 157.960938 157.382812 C 158.0625 157.863281 157.914062 158.359375 157.566406 158.703125 C 141.019531 175.042969 119.109375 184.039062 95.878906 184.039062 Z M 36.761719 157.207031 C 52.703125 172.667969 73.664062 181.171875 95.878906 181.171875 C 118.09375 181.171875 139.054688 172.667969 154.996094 157.207031 L 152.585938 145.851562 C 151.550781 140.984375 148.179688 136.972656 143.566406 135.121094 L 114.867188 124.335938 L 99.050781 137.503906 C 98.3125 138.117188 97.378906 138.453125 96.421875 138.453125 L 95.339844 138.453125 C 94.378906 138.453125 93.445312 138.117188 92.710938 137.503906 L 76.894531 124.335938 L 48.191406 135.121094 C 43.578125 136.972656 40.207031 140.984375 39.175781 145.851562 Z M 36.761719 157.207031 " fill-opacity="1" fill-rule="nonzero"/></g><g clip-path="url(#b0c766200d)"><path fill="#000000" d="M 101.6875 28.625 C 101.460938 28.625 101.230469 28.570312 101.019531 28.460938 L 95.878906 25.753906 L 90.738281 28.460938 C 90.253906 28.714844 89.671875 28.671875 89.230469 28.351562 C 88.789062 28.03125 88.566406 27.484375 88.660156 26.949219 L 89.640625 21.214844 L 85.480469 17.152344 C 85.09375 16.769531 84.953125 16.203125 85.121094 15.683594 C 85.289062 15.164062 85.734375 14.785156 86.277344 14.707031 L 92.023438 13.871094 L 94.59375 8.652344 C 94.835938 8.164062 95.335938 7.855469 95.878906 7.855469 C 96.421875 7.855469 96.921875 8.164062 97.164062 8.652344 L 99.734375 13.871094 L 105.484375 14.707031 C 106.023438 14.785156 106.46875 15.164062 106.636719 15.683594 C 106.804688 16.203125 106.667969 16.769531 106.277344 17.152344 L 102.117188 21.214844 L 103.097656 26.949219 C 103.191406 27.484375 102.96875 28.03125 102.527344 28.351562 C 102.277344 28.53125 101.984375 28.625 101.6875 28.625 Z M 95.878906 22.699219 C 96.109375 22.699219 96.335938 22.753906 96.546875 22.863281 L 99.785156 24.570312 L 99.167969 20.957031 C 99.085938 20.488281 99.242188 20.015625 99.578125 19.6875 L 102.199219 17.125 L 98.578125 16.597656 C 98.109375 16.53125 97.707031 16.238281 97.5 15.816406 L 95.878906 12.527344 L 94.257812 15.816406 C 94.050781 16.238281 93.648438 16.53125 93.179688 16.597656 L 89.558594 17.125 L 92.179688 19.6875 C 92.515625 20.015625 92.671875 20.488281 92.589844 20.957031 L 91.972656 24.570312 L 95.214844 22.863281 C 95.421875 22.753906 95.648438 22.699219 95.878906 22.699219 Z M 95.878906 22.699219 " fill-opacity="1" fill-rule="nonzero"/></g><path fill="#000000" d="M 65.742188 34.972656 C 65.609375 34.972656 65.476562 34.953125 65.347656 34.917969 C 64.824219 34.765625 64.429688 34.332031 64.332031 33.792969 L 63.296875 28.070312 L 58.003906 25.679688 C 57.503906 25.453125 57.179688 24.964844 57.160156 24.421875 C 57.140625 23.875 57.433594 23.367188 57.914062 23.109375 L 63.027344 20.351562 L 63.664062 14.570312 C 63.722656 14.027344 64.085938 13.566406 64.597656 13.378906 C 65.109375 13.191406 65.683594 13.3125 66.078125 13.691406 L 70.273438 17.710938 L 75.960938 16.527344 C 76.496094 16.417969 77.046875 16.621094 77.378906 17.050781 C 77.714844 17.480469 77.777344 18.0625 77.542969 18.554688 L 75.019531 23.796875 L 77.902344 28.847656 C 78.171875 29.324219 78.148438 29.910156 77.84375 30.363281 C 77.539062 30.816406 77.003906 31.054688 76.464844 30.980469 L 70.707031 30.199219 L 66.800781 34.503906 C 66.527344 34.808594 66.140625 34.972656 65.742188 34.972656 Z M 61.824219 24.257812 L 65.160156 25.765625 C 65.589844 25.957031 65.898438 26.351562 65.980469 26.816406 L 66.632812 30.421875 L 69.097656 27.710938 C 69.414062 27.359375 69.882812 27.191406 70.347656 27.253906 L 73.976562 27.746094 L 72.160156 24.5625 C 71.925781 24.152344 71.910156 23.65625 72.113281 23.230469 L 73.703125 19.925781 L 70.117188 20.671875 C 69.65625 20.769531 69.179688 20.628906 68.839844 20.304688 L 66.191406 17.769531 L 65.792969 21.414062 C 65.742188 21.882812 65.460938 22.296875 65.046875 22.519531 Z M 64.371094 21.257812 Z M 64.371094 21.257812 " fill-opacity="1" fill-rule="nonzero"/><g clip-path="url(#dcd6e74d40)"><path fill="#000000" d="M 45.046875 49.269531 C 44.542969 49.269531 44.070312 49.003906 43.8125 48.558594 L 40.882812 43.535156 L 35.089844 43.101562 C 34.546875 43.0625 34.074219 42.714844 33.871094 42.210938 C 33.664062 41.703125 33.765625 41.125 34.128906 40.71875 L 37.996094 36.375 L 36.617188 30.722656 C 36.488281 30.191406 36.667969 29.636719 37.085938 29.285156 C 37.503906 28.933594 38.085938 28.851562 38.582031 29.070312 L 43.902344 31.414062 L 48.84375 28.351562 C 49.304688 28.066406 49.890625 28.066406 50.355469 28.355469 C 50.816406 28.644531 51.074219 29.171875 51.019531 29.714844 L 50.441406 35.503906 L 54.871094 39.265625 C 55.289062 39.617188 55.46875 40.175781 55.335938 40.707031 C 55.203125 41.234375 54.785156 41.644531 54.25 41.761719 L 48.574219 42.996094 L 46.375 48.378906 C 46.167969 48.886719 45.691406 49.230469 45.148438 49.269531 C 45.113281 49.269531 45.082031 49.269531 45.046875 49.269531 Z M 38.195312 40.457031 L 41.847656 40.730469 C 42.316406 40.765625 42.738281 41.03125 42.976562 41.4375 L 44.824219 44.605469 L 46.210938 41.210938 C 46.390625 40.773438 46.769531 40.453125 47.230469 40.355469 L 50.808594 39.574219 L 48.015625 37.207031 C 47.65625 36.902344 47.46875 36.4375 47.515625 35.96875 L 47.882812 32.320312 L 44.769531 34.246094 C 44.367188 34.496094 43.871094 34.53125 43.4375 34.339844 L 40.085938 32.867188 L 40.957031 36.425781 C 41.066406 36.886719 40.949219 37.371094 40.632812 37.722656 L 38.199219 40.457031 Z M 38.195312 40.457031 " fill-opacity="1" fill-rule="nonzero"/></g><path fill="#000000" d="M 146.710938 49.269531 C 146.675781 49.269531 146.644531 49.269531 146.609375 49.269531 C 146.066406 49.230469 145.589844 48.886719 145.386719 48.378906 L 143.183594 42.996094 L 137.507812 41.761719 C 136.976562 41.644531 136.554688 41.234375 136.421875 40.707031 C 136.289062 40.175781 136.46875 39.617188 136.886719 39.265625 L 141.320312 35.503906 L 140.738281 29.714844 C 140.683594 29.171875 140.941406 28.644531 141.402344 28.355469 C 141.867188 28.066406 142.453125 28.066406 142.914062 28.351562 L 147.855469 31.414062 L 153.175781 29.070312 C 153.671875 28.851562 154.253906 28.933594 154.671875 29.285156 C 155.089844 29.636719 155.269531 30.191406 155.140625 30.722656 L 153.761719 36.375 L 157.628906 40.71875 C 157.992188 41.125 158.09375 41.703125 157.886719 42.207031 C 157.683594 42.714844 157.210938 43.0625 156.667969 43.101562 L 150.875 43.535156 L 147.945312 48.558594 C 147.6875 49.003906 147.214844 49.269531 146.710938 49.269531 Z M 140.949219 39.574219 L 144.527344 40.355469 C 144.988281 40.453125 145.371094 40.777344 145.546875 41.210938 L 146.9375 44.605469 L 148.78125 41.4375 C 149.019531 41.03125 149.441406 40.765625 149.910156 40.730469 L 153.5625 40.457031 L 151.125 37.722656 C 150.8125 37.371094 150.691406 36.886719 150.800781 36.425781 L 151.671875 32.867188 L 148.320312 34.339844 C 147.890625 34.53125 147.390625 34.496094 146.992188 34.246094 L 143.878906 32.320312 L 144.242188 35.96875 C 144.289062 36.4375 144.101562 36.898438 143.742188 37.207031 Z M 140.949219 39.574219 " fill-opacity="1" fill-rule="nonzero"/><path fill="#000000" d="M 126.015625 34.972656 C 125.617188 34.972656 125.230469 34.804688 124.957031 34.503906 L 121.050781 30.199219 L 115.292969 30.980469 C 114.75 31.050781 114.21875 30.8125 113.914062 30.359375 C 113.609375 29.910156 113.585938 29.320312 113.859375 28.847656 L 116.738281 23.796875 L 114.214844 18.554688 C 113.980469 18.0625 114.042969 17.480469 114.378906 17.050781 C 114.714844 16.617188 115.265625 16.417969 115.796875 16.527344 L 121.484375 17.710938 L 125.683594 13.6875 C 126.078125 13.3125 126.648438 13.191406 127.164062 13.378906 C 127.675781 13.5625 128.035156 14.027344 128.09375 14.566406 L 128.730469 20.351562 L 133.847656 23.105469 C 134.324219 23.367188 134.617188 23.875 134.597656 24.421875 C 134.578125 24.964844 134.253906 25.453125 133.757812 25.675781 L 128.460938 28.066406 L 127.425781 33.792969 C 127.328125 34.332031 126.933594 34.765625 126.410156 34.917969 C 126.28125 34.953125 126.148438 34.972656 126.015625 34.972656 Z M 121.601562 27.242188 C 122.003906 27.242188 122.390625 27.410156 122.664062 27.710938 L 125.125 30.425781 L 125.777344 26.816406 C 125.859375 26.351562 126.167969 25.957031 126.597656 25.765625 L 129.933594 24.257812 L 126.710938 22.519531 C 126.296875 22.296875 126.015625 21.882812 125.964844 21.414062 L 125.566406 17.769531 L 122.921875 20.304688 C 122.578125 20.628906 122.101562 20.769531 121.640625 20.671875 L 118.054688 19.925781 L 119.644531 23.230469 C 119.847656 23.65625 119.832031 24.152344 119.597656 24.5625 L 117.78125 27.746094 L 121.410156 27.253906 C 121.472656 27.246094 121.539062 27.242188 121.601562 27.242188 Z M 121.601562 27.242188 " fill-opacity="1" fill-rule="nonzero"/></svg>