<svg xmlns="http://www.w3.org/2000/svg" xmlns:xlink="http://www.w3.org/1999/xlink" width="256" zoomAndPan="magnify" viewBox="0 0 192 199.92" height="256" preserveAspectRatio="xMidYMid meet" version="1.0"><defs><clipPath id="ea92dddf6b"><path d="M 5.84375 7.722656 L 186.523438 7.722656 L 186.523438 183.902344 L 5.84375 183.902344 Z M 5.84375 7.722656 " clip-rule="nonzero"/></clipPath><clipPath id="137cd73248"><path d="M 0.84375 0.722656 L 181.148438 0.722656 L 181.148438 176.902344 L 0.84375 176.902344 Z M 0.84375 0.722656 " clip-rule="nonzero"/></clipPath><clipPath id="03bae5f01f"><rect x="0" width="182" y="0" height="177"/></clipPath></defs><g clip-path="url(#ea92dddf6b)"><g transform="matrix(1, 0, 0, 1, 5, 7)"><g clip-path="url(#03bae5f01f)"><g clip-path="url(#137cd73248)"><path fill="#000000" d="M 2.738281 138.976562 C 2.113281 138.976562 1.492188 138.722656 1.039062 138.226562 C 0.1875 137.292969 0.261719 135.847656 1.195312 135 C 1.339844 134.871094 10.660156 126.453125 20.34375 117.828125 C 18.78125 117.441406 17.320312 116.476562 16.28125 115.0625 C 15.15625 113.527344 14.53125 111.605469 14.375 109.179688 C 13.683594 98.382812 22.25 89.914062 27.425781 85.832031 C 41.71875 74.53125 60 69.417969 76.21875 64.960938 L 76.378906 64.792969 C 78.8125 56.992188 81.25 49.191406 83.691406 41.390625 C 85.488281 35.664062 87.902344 30.109375 93.410156 28.292969 C 96.519531 27.265625 100.074219 27.847656 102.6875 29.804688 C 104.191406 30.929688 105.335938 32.484375 106.019531 34.21875 L 137.667969 1.578125 C 138.546875 0.671875 139.996094 0.648438 140.90625 1.523438 C 141.8125 2.394531 141.839844 3.839844 140.960938 4.746094 L 80.4375 67.183594 C 80.429688 67.203125 80.425781 67.222656 80.417969 67.242188 C 80.183594 67.988281 79.601562 68.53125 78.898438 68.742188 C 78.648438 68.949219 78.359375 69.105469 78.042969 69.191406 C 62.09375 73.574219 44.015625 78.542969 30.273438 89.402344 C 25.800781 92.933594 18.390625 100.160156 18.949219 108.886719 C 19.046875 110.398438 19.394531 111.566406 19.980469 112.363281 C 20.519531 113.097656 21.394531 113.550781 22.054688 113.4375 C 22.605469 113.347656 23.277344 112.890625 23.929688 112.449219 L 34.867188 105.039062 C 34.960938 104.960938 35.054688 104.878906 35.148438 104.800781 C 35.347656 104.625 35.574219 104.496094 35.8125 104.40625 L 36.828125 103.714844 C 38.953125 102.273438 41.632812 102.019531 43.996094 103.03125 C 46.363281 104.046875 48.019531 106.160156 48.433594 108.695312 C 51.039062 124.644531 50.386719 134.851562 49.910156 142.308594 C 49.800781 144 49.699219 145.597656 49.652344 147.046875 C 49.546875 150.253906 51.035156 152.742188 53.632812 153.699219 C 56.351562 154.699219 59.378906 153.761719 61.34375 151.316406 C 61.6875 150.890625 61.996094 150.433594 62.285156 149.945312 C 62.328125 149.769531 62.386719 149.597656 62.476562 149.429688 C 65.90625 142.792969 67.496094 135.347656 67.0625 127.894531 C 66.992188 126.632812 67.957031 125.558594 69.222656 125.484375 C 70.484375 125.414062 71.566406 126.375 71.636719 127.632812 C 71.964844 133.335938 71.230469 139.035156 69.492188 144.4375 C 70.148438 145.976562 70.832031 147.273438 71.878906 147.972656 C 73.398438 148.988281 75.65625 148.53125 77.105469 147.5625 C 78.066406 146.917969 78.894531 146.019531 79.785156 144.582031 C 79.765625 144.242188 79.816406 143.894531 79.960938 143.558594 C 82.503906 137.550781 83.679688 130.800781 83.359375 124.039062 C 83.300781 122.78125 84.277344 121.714844 85.539062 121.65625 C 86.804688 121.59375 87.875 122.570312 87.9375 123.828125 C 88.199219 129.285156 87.558594 134.742188 86.09375 139.878906 C 86.867188 140.878906 88.433594 141.359375 89.890625 141.023438 C 92.558594 140.414062 93.996094 138.054688 94.773438 135.746094 C 94.777344 135.617188 94.789062 135.484375 94.816406 135.351562 C 95.574219 131.527344 95.660156 126.394531 95.042969 122.277344 C 94.855469 121.027344 95.71875 119.867188 96.964844 119.683594 C 98.214844 119.496094 99.382812 120.355469 99.570312 121.597656 C 99.953125 124.136719 100.097656 126.953125 100.007812 129.695312 C 100.261719 130.105469 102.035156 132.824219 104.367188 132.828125 C 104.367188 132.828125 104.367188 132.828125 104.371094 132.828125 C 105.761719 132.828125 107.0625 131.511719 107.710938 130.71875 C 110.90625 126.855469 112.679688 119.496094 111.660156 114.3125 C 111.640625 114.207031 111.628906 114.101562 111.621094 113.996094 C 110.882812 113.714844 110.15625 113.421875 109.429688 113.109375 C 106.257812 111.738281 102.808594 109.773438 101.28125 105.640625 C 100.472656 103.464844 100.511719 101.046875 101.375 99.003906 C 101.863281 97.855469 103.34375 94.359375 109.71875 94.144531 C 110.382812 94.121094 111.042969 94.125 111.707031 94.140625 C 111.007812 93.335938 110.394531 92.425781 109.925781 91.375 C 108.910156 89.113281 108.890625 86.605469 109.867188 84.503906 C 112.007812 79.910156 117.183594 79.882812 119.132812 79.871094 C 119.21875 79.871094 119.296875 79.871094 119.382812 79.871094 C 119.703125 79.871094 120.023438 79.878906 120.339844 79.886719 C 119.367188 78.929688 118.53125 77.808594 117.921875 76.457031 C 116.910156 74.191406 116.890625 71.6875 117.867188 69.582031 C 120.003906 64.988281 125.179688 64.960938 127.132812 64.949219 C 127.214844 64.949219 127.296875 64.949219 127.378906 64.949219 C 130.3125 64.949219 133.242188 65.242188 136.121094 65.804688 C 135.886719 65.304688 135.679688 64.765625 135.511719 64.179688 C 134.914062 62.101562 135.007812 59.777344 135.761719 57.800781 C 137.550781 53.117188 141.757812 52.8125 143.140625 52.707031 C 148.761719 52.292969 154.273438 53.769531 159.105469 56.972656 C 166.273438 50.660156 177.023438 38.691406 177.136719 38.566406 C 177.980469 37.628906 179.425781 37.546875 180.367188 38.386719 C 181.3125 39.226562 181.394531 40.667969 180.550781 41.605469 C 180.097656 42.113281 169.574219 53.832031 162.210938 60.332031 C 163.132812 62.042969 163.632812 64.113281 163.59375 66.296875 C 163.570312 67.542969 163.378906 68.625 163 69.597656 C 162.074219 71.980469 160.140625 73.855469 157.824219 74.617188 C 156.847656 74.941406 155.886719 75.054688 154.984375 75.054688 C 154.515625 75.054688 154.066406 75.023438 153.632812 74.980469 C 154.425781 76.4375 154.898438 78.0625 154.96875 79.746094 C 155.023438 81.105469 154.8125 82.28125 154.3125 83.335938 C 153.183594 85.710938 150.734375 87.480469 147.753906 88.070312 C 146.871094 88.246094 145.988281 88.3125 145.125 88.3125 C 144.9375 88.3125 144.75 88.300781 144.5625 88.292969 C 146 90.109375 146.867188 92.332031 146.964844 94.667969 C 147.023438 96.03125 146.808594 97.207031 146.308594 98.257812 C 145.183594 100.636719 142.734375 102.402344 139.75 102.992188 C 138.871094 103.167969 137.988281 103.238281 137.125 103.238281 C 135.671875 103.238281 134.273438 103.042969 133.019531 102.824219 C 132.789062 102.785156 132.558594 102.734375 132.328125 102.691406 C 133.304688 104.351562 133.863281 106.300781 133.890625 108.347656 C 133.90625 109.652344 133.703125 110.78125 133.265625 111.796875 C 132.234375 114.183594 130.03125 116.007812 127.371094 116.679688 C 126.4375 116.917969 125.511719 117.003906 124.621094 117.003906 C 123.449219 117.003906 122.328125 116.851562 121.316406 116.675781 C 119.679688 116.394531 118.054688 116.027344 116.441406 115.585938 C 116.96875 121.800781 114.894531 129.207031 111.238281 133.632812 C 109.195312 136.101562 106.824219 137.402344 104.363281 137.402344 C 104.359375 137.402344 104.355469 137.402344 104.351562 137.402344 C 102.4375 137.398438 100.816406 136.695312 99.53125 135.785156 C 98.554688 139.546875 96.265625 144.253906 90.910156 145.484375 C 88.859375 145.953125 86.703125 145.640625 84.9375 144.722656 C 83.414062 147.71875 81.882812 149.855469 79.65625 151.351562 C 76.386719 153.550781 72.234375 153.714844 69.316406 151.769531 C 68.5625 151.261719 67.925781 150.648438 67.390625 149.980469 C 66.707031 151.496094 65.921875 152.914062 64.90625 154.175781 C 62.59375 157.058594 59.210938 158.652344 55.789062 158.65625 C 49.765625 164.941406 43.113281 170.882812 36.011719 176.316406 C 35.59375 176.632812 35.101562 176.785156 34.617188 176.785156 C 33.929688 176.785156 33.25 176.476562 32.800781 175.894531 C 32.027344 174.890625 32.21875 173.457031 33.21875 172.695312 C 39.429688 167.945312 45.285156 162.792969 50.660156 157.367188 C 47.023438 155.421875 44.90625 151.542969 45.058594 146.90625 C 45.105469 145.382812 45.210938 143.753906 45.320312 142.027344 C 45.78125 134.789062 46.417969 124.878906 43.894531 109.4375 C 43.730469 108.4375 43.097656 107.632812 42.167969 107.234375 C 41.234375 106.835938 40.21875 106.929688 39.382812 107.5 L 37.652344 108.671875 C 26.035156 118.710938 4.476562 138.1875 4.261719 138.390625 C 3.835938 138.777344 3.285156 138.976562 2.738281 138.976562 Z M 102.152344 38.214844 C 102.152344 38.171875 102.148438 38.128906 102.152344 38.089844 C 102.222656 36.332031 101.355469 34.515625 99.945312 33.457031 C 98.53125 32.398438 96.539062 32.074219 94.863281 32.628906 C 91.316406 33.800781 89.507812 38.183594 88.074219 42.75 C 86.535156 47.664062 85.003906 52.578125 83.46875 57.492188 Z M 156.378906 70.277344 C 157.179688 70.015625 158.210938 69.261719 158.722656 67.945312 C 158.902344 67.476562 159 66.910156 159.011719 66.207031 C 159.046875 63.933594 158.210938 61.882812 156.878906 60.964844 C 152.824219 58.1875 148.191406 56.902344 143.476562 57.253906 C 141.472656 57.402344 140.605469 57.945312 140.046875 59.417969 C 139.640625 60.476562 139.589844 61.78125 139.914062 62.917969 C 140.570312 65.195312 142.097656 66.335938 144.355469 67.429688 C 147.203125 68.816406 150.175781 69.78125 153.199219 70.300781 C 154.261719 70.480469 155.382812 70.605469 156.378906 70.277344 Z M 146.863281 83.582031 C 148.398438 83.277344 149.664062 82.433594 150.167969 81.375 C 150.34375 81.007812 150.417969 80.535156 150.390625 79.925781 C 150.292969 77.636719 148.921875 75.511719 146.8125 74.386719 C 140.832031 71.191406 134.117188 69.507812 127.382812 69.507812 C 127.3125 69.507812 127.234375 69.507812 127.160156 69.507812 C 124.164062 69.523438 122.675781 70.101562 122.027344 71.492188 C 121.605469 72.402344 121.632812 73.527344 122.113281 74.585938 C 123.285156 77.207031 126.132812 78.628906 129.027344 79.777344 C 133.167969 81.421875 137.46875 82.636719 141.808594 83.386719 C 143.46875 83.679688 145.234375 83.90625 146.863281 83.582031 Z M 133.808594 98.316406 C 135.472656 98.605469 137.234375 98.824219 138.867188 98.507812 C 140.402344 98.203125 141.667969 97.359375 142.167969 96.300781 C 142.34375 95.929688 142.417969 95.457031 142.390625 94.851562 C 142.289062 92.5625 140.917969 90.4375 138.8125 89.308594 C 132.832031 86.117188 126.117188 84.429688 119.382812 84.429688 C 119.308594 84.429688 119.234375 84.429688 119.160156 84.429688 C 116.164062 84.445312 114.675781 85.023438 114.027344 86.414062 C 113.601562 87.324219 113.632812 88.449219 114.109375 89.507812 C 115.285156 92.132812 118.128906 93.554688 121.027344 94.703125 C 125.167969 96.351562 129.472656 97.5625 133.808594 98.316406 Z M 122.109375 112.175781 C 123.476562 112.410156 124.933594 112.585938 126.253906 112.25 C 127.25 112 128.507812 111.273438 129.0625 109.988281 C 129.242188 109.574219 129.328125 109.050781 129.320312 108.398438 C 129.289062 106.109375 128.195312 104.046875 126.472656 103.015625 C 121.402344 100 115.664062 98.507812 109.878906 98.703125 C 107.363281 98.789062 106.203125 99.351562 105.601562 100.777344 C 105.179688 101.765625 105.171875 102.964844 105.582031 104.058594 C 106.460938 106.433594 108.488281 107.71875 111.257812 108.917969 C 114.761719 110.441406 118.417969 111.535156 122.109375 112.175781 Z M 122.109375 112.175781 " fill-opacity="1" fill-rule="nonzero"/></g></g></g></g></svg>