<svg xmlns="http://www.w3.org/2000/svg" xmlns:xlink="http://www.w3.org/1999/xlink" width="256" zoomAndPan="magnify" viewBox="0 0 192 199.92" height="256" preserveAspectRatio="xMidYMid meet" version="1.0"><defs><clipPath id="46d58dc2f2"><path d="M 60 7.832031 L 125 7.832031 L 125 72 L 60 72 Z M 60 7.832031 " clip-rule="nonzero"/></clipPath><clipPath id="5c363dc6dd"><path d="M 30 82 L 110 82 L 110 184.011719 L 30 184.011719 Z M 30 82 " clip-rule="nonzero"/></clipPath><clipPath id="b3c1a80f5a"><path d="M 150 165 L 155 165 L 155 184.011719 L 150 184.011719 Z M 150 165 " clip-rule="nonzero"/></clipPath></defs><g clip-path="url(#46d58dc2f2)"><path fill="#000000" d="M 92.210938 71.554688 C 74.640625 71.554688 60.347656 57.261719 60.347656 39.695312 C 60.347656 22.125 74.640625 7.832031 92.210938 7.832031 C 109.78125 7.832031 124.074219 22.125 124.074219 39.695312 C 124.074219 57.261719 109.78125 71.554688 92.210938 71.554688 Z M 92.210938 11.578125 C 76.707031 11.578125 64.097656 24.191406 64.097656 39.695312 C 64.097656 55.195312 76.707031 67.808594 92.210938 67.808594 C 107.714844 67.808594 120.324219 55.195312 120.324219 39.695312 C 120.324219 24.191406 107.714844 11.578125 92.210938 11.578125 Z M 92.210938 11.578125 " fill-opacity="1" fill-rule="nonzero"/></g><g clip-path="url(#5c363dc6dd)"><path fill="#000000" d="M 50.976562 184.011719 C 38.070312 184.011719 30.359375 174.902344 30.359375 159.644531 L 30.359375 122.160156 C 30.359375 96.042969 51.167969 82.800781 92.210938 82.800781 C 93.246094 82.800781 94.085938 83.640625 94.085938 84.675781 C 94.085938 85.710938 93.246094 86.550781 92.210938 86.550781 C 53.65625 86.550781 34.109375 98.53125 34.109375 122.160156 L 34.109375 159.644531 C 34.109375 172.941406 40.101562 180.261719 50.976562 180.261719 C 65.269531 180.261719 94.671875 161.988281 94.964844 161.804688 C 97.816406 159.898438 105.332031 153.710938 105.332031 148.398438 C 105.332031 141.917969 102.441406 139.027344 95.960938 139.027344 C 91.882812 139.027344 83.386719 143.054688 75.171875 146.945312 C 69.519531 149.621094 63.671875 152.390625 59.066406 153.925781 C 58.496094 154.117188 57.867188 154.019531 57.378906 153.667969 C 56.890625 153.316406 56.601562 152.75 56.601562 152.148438 L 56.601562 125.910156 C 56.601562 124.875 57.4375 124.035156 58.476562 124.035156 C 59.511719 124.035156 60.347656 124.875 60.347656 125.910156 L 60.347656 149.476562 C 64.3125 147.941406 69.003906 145.71875 73.566406 143.558594 C 82.550781 139.300781 91.039062 135.28125 95.960938 135.28125 C 104.542969 135.28125 109.078125 139.816406 109.078125 148.398438 C 109.078125 156.804688 97.492188 164.625 97 164.953125 C 95.710938 165.761719 66.332031 184.011719 50.976562 184.011719 Z M 50.976562 184.011719 " fill-opacity="1" fill-rule="nonzero"/></g><g clip-path="url(#b3c1a80f5a)"><path fill="#000000" d="M 152.1875 184.011719 C 151.152344 184.011719 150.3125 183.171875 150.3125 182.136719 L 150.3125 167.519531 C 150.3125 166.480469 151.152344 165.644531 152.1875 165.644531 C 153.222656 165.644531 154.0625 166.480469 154.0625 167.519531 L 154.0625 182.136719 C 154.0625 183.171875 153.222656 184.011719 152.1875 184.011719 Z M 152.1875 184.011719 " fill-opacity="1" fill-rule="nonzero"/></g><path fill="#000000" d="M 129.507812 92.210938 C 129.277344 92.210938 129.042969 92.167969 128.816406 92.074219 C 119.46875 88.359375 107.5 86.550781 92.210938 86.550781 C 91.175781 86.550781 90.335938 85.710938 90.335938 84.675781 C 90.335938 83.640625 91.175781 82.800781 92.210938 82.800781 C 107.980469 82.800781 120.40625 84.695312 130.203125 88.59375 C 131.164062 88.976562 131.632812 90.066406 131.25 91.027344 C 130.960938 91.761719 130.253906 92.210938 129.507812 92.210938 Z M 129.507812 92.210938 " fill-opacity="1" fill-rule="nonzero"/><path fill="#000000" d="M 120.324219 172.765625 C 120.101562 172.765625 119.882812 172.726562 119.671875 172.648438 C 114.066406 170.566406 106.777344 165.957031 100.179688 160.320312 C 99.390625 159.648438 99.296875 158.464844 99.96875 157.679688 C 100.644531 156.886719 101.828125 156.800781 102.613281 157.46875 C 108.636719 162.617188 115.195312 166.835938 120.324219 168.882812 C 129.042969 165.402344 142.53125 155.304688 150.660156 143.902344 C 155.339844 137.355469 157.808594 130.9375 157.808594 125.347656 C 157.808594 116.199219 154.871094 105.292969 140.867188 105.292969 C 128.53125 105.292969 122.058594 117.640625 121.996094 117.765625 C 121.355469 119.015625 119.296875 119.015625 118.65625 117.765625 C 118.589844 117.640625 112.117188 105.292969 99.785156 105.292969 C 85.78125 105.292969 82.839844 116.199219 82.839844 125.347656 C 82.839844 129.652344 84.257812 134.347656 87.058594 139.308594 C 87.566406 140.207031 87.25 141.351562 86.347656 141.859375 C 85.445312 142.371094 84.304688 142.054688 83.792969 141.148438 C 80.671875 135.621094 79.089844 130.304688 79.089844 125.347656 C 79.089844 110.21875 86.632812 101.542969 99.785156 101.542969 C 110.609375 101.542969 117.394531 109.136719 120.324219 113.351562 C 123.253906 109.136719 130.039062 101.542969 140.867188 101.542969 C 154.015625 101.542969 161.558594 110.21875 161.558594 125.347656 C 161.558594 131.726562 158.847656 138.894531 153.710938 146.078125 C 144.628906 158.820312 130.066406 169.277344 120.976562 172.648438 C 120.765625 172.726562 120.546875 172.765625 120.324219 172.765625 Z M 120.324219 172.765625 " fill-opacity="1" fill-rule="nonzero"/></svg>