<svg xmlns="http://www.w3.org/2000/svg" xmlns:xlink="http://www.w3.org/1999/xlink" width="256" zoomAndPan="magnify" viewBox="0 0 192 199.92" height="256" preserveAspectRatio="xMidYMid meet" version="1.0"><path fill="#000000" d="M 179.542969 75.5 C 173.449219 55.371094 158.527344 35.410156 140.667969 24.261719 C 117.023438 10.070312 79.203125 3.476562 57.730469 24.652344 C 106.027344 4.910156 154.324219 23.871094 173.953125 72.867188 C 182.449219 98.484375 176.0625 133.625 159.234375 154.628906 C 147.796875 168.136719 131.59375 177.960938 113.800781 179.578125 C 87.039062 184.6875 62.574219 178.324219 40.660156 162.355469 C 20.632812 147.753906 11.085938 121.925781 13.394531 97.605469 C 14.234375 83.308594 17.269531 68.835938 24.445312 56.328125 C 28.878906 48.53125 34.589844 41.34375 41.386719 35.496094 C 46 31.167969 53.039062 27.9375 56.613281 22.835938 C 48.847656 25.558594 40.839844 28.21875 35.070312 34.578125 C 15.121094 54.191406 7.925781 83.679688 9.214844 110.980469 C 10.953125 133.554688 22.320312 156.070312 41.542969 168.550781 C 66.09375 185.242188 92.453125 188.648438 121.195312 183.542969 C 129.992188 182.199219 138.277344 178.476562 145.667969 173.605469 C 162.648438 162.625 174.640625 144.785156 178.933594 125.066406 C 182.644531 108.851562 184.050781 91.769531 179.542969 75.5 Z M 179.542969 75.5 " fill-opacity="1" fill-rule="nonzero"/><path fill="#000000" d="M 86.070312 100.066406 C 85.695312 101.140625 84.667969 102.246094 85.558594 103.394531 C 84.828125 105.886719 88.988281 107.589844 90.300781 109.53125 C 90.421875 110.566406 91.417969 111.484375 92.457031 111.519531 C 102.199219 119.730469 112.53125 127.164062 122.820312 134.683594 C 126.105469 137.082031 129.378906 139.488281 132.691406 141.847656 C 134.449219 142.617188 136.308594 141.832031 138.425781 141.808594 C 138.589844 141.015625 138.171875 140.539062 137.84375 139.902344 C 137.664062 138.742188 137.90625 136.6875 136.589844 136.203125 C 136.101562 136.046875 135.742188 135.722656 135.402344 135.40625 C 135.402344 135.40625 131.042969 131.300781 131.042969 131.300781 C 126.054688 125.144531 120.652344 119.277344 114.941406 113.722656 C 110.6875 109.730469 108.25 104.238281 103.941406 100.28125 C 103.5 91.859375 101.300781 83.675781 100.144531 75.347656 C 99.539062 71.820312 98.945312 68.289062 98.296875 64.765625 C 97.445312 63.128906 95.546875 62.445312 94.210938 60.980469 C 93.082031 61.335938 92.855469 62.285156 92.058594 63.015625 C 90.785156 63.992188 91.707031 65.332031 91.460938 66.589844 C 91.460938 66.589844 90.730469 73.355469 90.730469 73.355469 C 90.464844 75.886719 89.777344 78.355469 88.53125 80.59375 C 87.742188 82.160156 86.214844 84.3125 88.285156 85.617188 C 88.089844 87.554688 87.667969 89.449219 87.285156 91.359375 C 86.792969 92.183594 86.214844 93.15625 86.8125 94.089844 C 86.574219 96.082031 86.355469 98.082031 86.070312 100.066406 Z M 95.015625 76.261719 C 95.0625 76.554688 95.117188 76.851562 95.171875 77.144531 C 94.949219 77.253906 94.726562 77.371094 94.503906 77.484375 C 94.6875 77.085938 94.863281 76.675781 95.015625 76.261719 Z M 96.226562 81.375 C 96.394531 81.957031 96.554688 82.539062 96.683594 83.125 C 96.613281 83.195312 96.539062 83.265625 96.46875 83.335938 L 95.667969 82.734375 C 94.964844 83.859375 94.574219 85.238281 93.597656 86.148438 C 94.46875 84.554688 95.34375 82.960938 96.226562 81.375 Z M 105.296875 109.726562 C 105.03125 110.007812 104.761719 110.289062 104.496094 110.574219 C 104.570312 110.082031 104.648438 109.589844 104.726562 109.097656 C 104.917969 109.304688 105.109375 109.515625 105.296875 109.726562 Z M 98.855469 100.675781 C 98.761719 100.765625 98.671875 100.855469 98.574219 100.945312 C 98.660156 100.773438 98.742188 100.605469 98.828125 100.433594 C 98.832031 100.515625 98.84375 100.59375 98.855469 100.675781 Z M 96.792969 108.335938 C 96.980469 108.152344 97.167969 107.976562 97.351562 107.792969 C 97.285156 108.074219 97.21875 108.351562 97.15625 108.632812 C 97.035156 108.535156 96.914062 108.433594 96.792969 108.335938 Z M 123.683594 128.671875 C 123.734375 128.789062 123.785156 128.898438 123.835938 129.015625 C 123.519531 128.800781 123.195312 128.59375 122.871094 128.394531 C 123.007812 128.324219 123.148438 128.253906 123.289062 128.183594 C 123.421875 128.347656 123.558594 128.507812 123.683594 128.671875 Z M 97.765625 88.554688 C 97.769531 88.570312 97.773438 88.589844 97.777344 88.605469 C 96.457031 88.953125 95.496094 90.78125 94.527344 91.65625 C 95.441406 90.042969 96.046875 88.214844 97.480469 86.976562 C 97.582031 87.5 97.679688 88.027344 97.765625 88.554688 Z M 97.765625 88.554688 " fill-opacity="1" fill-rule="nonzero"/><path fill="#000000" d="M 93.429688 35.535156 C 93.394531 36.8125 93.761719 37.25 93.863281 38.152344 C 93.804688 39.125 93.484375 39.335938 93.5 40.769531 C 93.453125 44.066406 98.636719 44.074219 98.589844 40.769531 C 99.007812 39.007812 99.078125 37.335938 98.511719 35.535156 C 98.699219 33.820312 98.738281 32.121094 98.660156 30.308594 C 98.660156 28.976562 98.609375 28.96875 98.609375 27.691406 C 98.855469 26.460938 99.179688 24.222656 98.640625 23.027344 C 98.847656 19.359375 93.753906 18.707031 93.464844 22.464844 C 93.429688 23.742188 93.785156 24.144531 93.867188 25.074219 C 93.808594 26.058594 93.496094 26.421875 93.527344 27.6875 C 93.582031 30.585938 93.699219 32.613281 93.429688 35.535156 Z M 93.429688 35.535156 " fill-opacity="1" fill-rule="nonzero"/><path fill="#000000" d="M 146.605469 42.46875 C 145.371094 43.894531 144.734375 44.6875 143.496094 45.972656 C 142.402344 46.9375 141.070312 48.289062 140.46875 49.542969 C 138.941406 51.210938 137.03125 52.640625 135.460938 54.457031 C 133.152344 57.308594 137.140625 61.417969 140.753906 56.269531 C 142.355469 54.933594 144.53125 53 145.5 51.105469 C 146.890625 49.800781 148.554688 48.125 149.714844 46.660156 C 152.753906 44.285156 149.617188 39.832031 146.605469 42.46875 Z M 146.605469 42.46875 " fill-opacity="1" fill-rule="nonzero"/><path fill="#000000" d="M 156 103.652344 C 157.832031 103.613281 158.972656 103.886719 160.960938 104.042969 C 165.160156 103.988281 169.21875 104.023438 173.367188 103.835938 C 176.660156 103.886719 176.667969 98.691406 173.367188 98.742188 C 171.242188 98.691406 169.21875 98.980469 167.246094 98.921875 C 165.207031 98.871094 163.03125 98.898438 160.960938 98.945312 C 159.351562 98.648438 157.8125 98.570312 156 98.550781 C 152.703125 98.511719 152.695312 103.699219 156 103.652344 Z M 156 103.652344 " fill-opacity="1" fill-rule="nonzero"/><path fill="#000000" d="M 98.019531 161.5625 C 100.191406 157.191406 93.933594 154.519531 93.269531 159.75 C 92.195312 162.675781 93.5625 166.644531 93.222656 169.609375 C 92.765625 170.835938 92.898438 172.570312 92.835938 174.03125 C 92.746094 177.332031 97.929688 177.398438 97.921875 174.089844 C 97.9375 172.882812 97.964844 172.882812 97.980469 171.652344 C 98.082031 170.820312 98.410156 170.402344 98.390625 169.21875 C 98.410156 166.433594 97.816406 164.152344 98.019531 161.5625 Z M 98.019531 161.5625 " fill-opacity="1" fill-rule="nonzero"/><path fill="#000000" d="M 40.300781 155.957031 C 42.164062 155.976562 43.820312 153.140625 45.46875 151.964844 C 47.796875 149.953125 50.003906 147.457031 52.109375 145.289062 C 57.214844 142.046875 53.382812 137.632812 50.308594 140.089844 C 49.101562 141.113281 48.011719 142.152344 46.902344 143.34375 C 45.066406 145.410156 43.191406 147.1875 41.167969 149.003906 C 40.3125 149.71875 39.367188 150.75 38.519531 151.59375 C 36.875 153.09375 38.113281 156.035156 40.300781 155.957031 Z M 40.300781 155.957031 " fill-opacity="1" fill-rule="nonzero"/><path fill="#000000" d="M 39.824219 100.566406 C 39.503906 96.164062 31.421875 97.699219 28.53125 97.960938 C 27.34375 98.191406 26.933594 97.789062 25.511719 97.824219 C 23.503906 97.980469 22.683594 98.09375 20.808594 98.023438 C 14.613281 96.941406 14.765625 102.769531 18.449219 103.058594 C 20.742188 103.121094 23.289062 103.242188 25.507812 102.917969 C 28.148438 103.421875 31.445312 102.644531 33.96875 102.605469 C 35.128906 102.347656 35.753906 103.164062 37.28125 103.113281 C 38.683594 103.113281 39.824219 101.976562 39.824219 100.566406 Z M 39.824219 100.566406 " fill-opacity="1" fill-rule="nonzero"/><path fill="#000000" d="M 55.367188 54.125 C 53.953125 53.097656 53.21875 52.195312 52.152344 50.773438 C 51.152344 49.875 50.164062 49.226562 49.28125 48.367188 C 47.996094 47.160156 47.101562 45.398438 45.683594 44.21875 C 44.933594 43.503906 45.015625 42.476562 43.992188 41.964844 C 42.597656 41.148438 41.234375 41.683594 40.558594 42.523438 C 38.53125 45.734375 42.511719 47.621094 43.871094 49.828125 C 44.859375 51.609375 46.992188 53.136719 48.53125 54.355469 C 49.253906 55.578125 50.582031 56.960938 51.769531 57.722656 C 52.621094 58.582031 52.441406 58.589844 53.328125 59.46875 C 55.628906 61.828125 59.289062 58.152344 56.914062 55.851562 C 56.199219 55.117188 56.273438 55.015625 55.367188 54.125 Z M 55.367188 54.125 " fill-opacity="1" fill-rule="nonzero"/><path fill="#000000" d="M 152.074219 153.152344 C 149.179688 150.3125 146.582031 147.675781 144.097656 144.457031 C 142.199219 140.703125 136.863281 143.136719 139.417969 146.796875 C 140.1875 147.636719 140.128906 147.742188 141.011719 148.683594 C 143.402344 151.917969 146.621094 154.902344 149.46875 157.6875 C 152.96875 160.523438 155.753906 155.277344 152.074219 153.152344 Z M 152.074219 153.152344 " fill-opacity="1" fill-rule="nonzero"/></svg>